<svg id="Layer_1" data-name="Layer 1" xmlns="http://www.w3.org/2000/svg" viewBox="0 0 1173 303"><defs><style>.cls-1,.cls-3{fill:#fff;}.cls-2{fill:#121010;}.cls-3{font-size:171.4px;font-family:Montserrat-BoldItalic, Montserrat;font-weight:700;font-style:italic;}</style></defs><path d="M871.76,92.43c.78.83,1.2,1,1.86-.19,4.44-8,9-15.91,13.4-24a8.28,8.28,0,0,1,6.38-4.84c10.66-2,21.25-4.33,31.85-6.57a2.13,2.13,0,0,1,2.21.64c2.08,2.18,4.18,4.35,6.27,6.53a1.56,1.56,0,0,1,.54,1.36q-1.1,8.89-2.15,17.79-1,8.35-2,16.72-.71,5.77-1.42,11.56a4.69,4.69,0,0,0,.14,2.05c.66-1.81,1.32-3.61,2-5.43q6.09-17.13,12.14-34.28a2.85,2.85,0,0,1,2.42-2c10.91-2.29,21.82-4.62,32.73-6.91,5.4-1.13,10.75-2.58,16.24-3.22,6.85-.8,13.17.21,18.06,5.75,2.17,2.45,4.71,4.55,6.81,7.07,3,3.6,4.31,7.85,4.89,12.38,1,7.93-.35,15.6-2.81,23.1a171.46,171.46,0,0,1-18,37.92A63,63,0,0,1,978,170.52c-5.37,2.73-11.27,3.65-17.07,4.87-3.15.67-6.3,1.36-9.46,2a2.49,2.49,0,0,0-2.11,1.88c-4.27,12.6-8.74,25.13-12.79,37.8-1.21,3.78-3,5.51-7,6.16-9.78,1.61-19.47,3.81-29.18,5.81a3.06,3.06,0,0,1-3.17-.9c-1.94-2-4-4-6-5.94a1.68,1.68,0,0,1-.36-2.06c2.6-7.17,5.16-14.35,7.73-21.53.25-.71.48-1.44.76-2.29a25.32,25.32,0,0,0-5.09.79c-3.18.56-6.33,1.23-9.48,1.89a2.71,2.71,0,0,1-2.76-.85c-1.69-1.78-3.41-3.54-5.21-5.21a3.29,3.29,0,0,1-1.15-3.5c.75-3.6.65-3.65-2.89-2.92-3,.62-6,1.34-9,2a2.6,2.6,0,0,0-1.92,1.54c-2.51,4.86-5.1,9.68-7.61,14.54a2.47,2.47,0,0,1-2,1.18c-7,1.47-14,3-21,4.36a3,3,0,0,0-2.57,2.19c-3,8.39-6.05,16.75-9.09,25.12-.78,2.16-1.62,4.31-2.34,6.49a2.17,2.17,0,0,1-1.88,1.54L780,252.73c-18.73,3.88-37.47,7.69-56.17,11.73-3.06.66-5.25.36-7.16-2.21a32.64,32.64,0,0,0-3.88-3.92,1.83,1.83,0,0,1-.25-2.8q13.41-19.08,26.76-38.21,19-27.1,37.92-54.2c1.36-2,3-3.68,4.57-5.51l-.18-.36-9,1.73c-2.26.43-4.52.86-6.78,1.32a2.72,2.72,0,0,1-2.75-.87c-2-2.06-4.05-4.06-6.1-6.06a1.48,1.48,0,0,1-.46-1.77q7.68-21.47,15.3-42.94a3.64,3.64,0,0,1,3.13-2.63q16.77-3.34,33.52-6.84,28.17-5.84,56.32-11.72a2.83,2.83,0,0,1,3,.91c1.27,1.4,2.69,2.66,4,4.05"/><path d="M1035.86,117.58c-.84.14-1.39-.42-1.93-1-1.89-1.88-3.74-3.8-5.66-5.63a2.4,2.4,0,0,1-.66-2.87q5.67-17.12,11.23-34.28,7.83-24.08,15.62-48.18a3.27,3.27,0,0,1,2.85-2.51q12.93-2.58,25.85-5.29a2.06,2.06,0,0,1,2.09.55c1.94,2,3.88,3.93,5.86,5.87a2.57,2.57,0,0,1,.6,3.16q-7.07,17.17-14,34.38c-2.29,5.64-4.58,11.28-6.92,16.9a1.54,1.54,0,0,0,.51,1.88c2,2,3.86,4.1,5.87,6.06a2.11,2.11,0,0,1,.51,2.69c-4.51,11.26-8.94,22.54-13.44,33.8-.44,1.1-.51,1.71.59,2.62,2.23,1.86,4.13,4.11,6.25,6.12a2.22,2.22,0,0,1,.55,2.86c-2.15,5-4.26,10-6.39,15-5,11.71-10,23.44-15,35.12-4,9.15-8.05,18.26-12.07,27.38q-4.44,10-8.86,20.08c-.78,1.77-1.71,2-3.1.59-1.75-1.73-3.4-3.56-5.24-5.18a3.22,3.22,0,0,1-1-3.77q7-26.34,13.81-52.7c.26-1,.79-2-1-2-.32,0-.69-.4-1-.68-2.08-2.05-4.12-4.14-6.21-6.17a1.91,1.91,0,0,1-.51-2.19q6-20.56,11.86-41.14C1037.09,118.25,1037.66,117.08,1035.86,117.58Z"/><path d="M1011,271.8c-.72.07-1.12-.43-1.55-.86-2.07-2-4.14-4.1-6.22-6.13a1.78,1.78,0,0,1-.51-1.94q3.07-10.85,6.1-21.69a2.12,2.12,0,0,1,1.82-1.6q8.31-1.83,16.59-3.73a1.76,1.76,0,0,1,1.78.6l6.18,6.18a2.14,2.14,0,0,1,.58,2.36c-2,7-4,14.06-6,21.09a2,2,0,0,1-1.52,1.56l-17,4.1Z"/><path class="cls-1" d="M815.38,194.57c.19,0,.4,0,.81-.08-1.67,3-3.2,5.83-4.87,8.61a1.85,1.85,0,0,0,.37,2.77c1.58,1.44,3,3,4.58,4.53a1.34,1.34,0,0,1,.37,1.63q-4.21,11.5-8.37,23a1.62,1.62,0,0,1-1.42,1.15l-53.43,11.07-36.32,7.53c-.29.06-.59.09-1.1.16l1.13-1.65q30.86-44.13,61.75-88.24c3.62-5.13,8.08-9.64,11.82-14.7q2.14-2.91,4.33-5.77c.54-.71.85-1.46.27-2.24s-1.48-.43-2.19,0c-5.1,3-10.81,3.92-16.48,5-5.38,1-10.73,2.11-16.1,3.16a8.35,8.35,0,0,1-1,.07c.57-1.61,1.08-3.07,1.6-4.53Q767.59,128,774,110a2.06,2.06,0,0,1,1.76-1.56q34.47-7.06,68.92-14.24l16.51-3.42a3,3,0,0,1,1.73.06c-3.75,5.28-7.44,10.43-11.08,15.6-21.5,30.53-43.49,60.7-65.45,90.9-.24.33-.49.65-.7,1a2,2,0,0,0,0,2.18c.47.77,1.27.55,2,.33,9.09-2.86,18.51-4.24,27.79-6.25"/><path class="cls-1" d="M893.78,219.33c2.76-7.77,5.46-15.36,8.15-23a1.47,1.47,0,0,1,1.33-1c4.67-.88,9.32-1.86,14-2.71a2,2,0,0,0,2-2c1.45-12.5,3-25,4.46-37.47,1-8.59,2.05-17.17,3.11-25.74.3-2.41,1.37-4.6,2.17-6.85q7.93-22.38,15.89-44.75A2.44,2.44,0,0,1,947,74c15.16-3.15,30.3-6.38,45.46-9.53a24.75,24.75,0,0,1,10.07-.11c5.21,1.06,8.55,4.37,10.52,9.15,2.13,5.16,2.24,10.57,1.72,16-1,10-4.64,19.12-8.82,28.08-3.43,7.36-6.76,14.82-11.26,21.59-7.31,11-16.85,19.49-29.42,24.06-5.48,2-11.35,2.56-17,3.9-1.8.42-3.59.88-5.4,1.13a2.57,2.57,0,0,0-2.33,2c-3.52,10.4-7.1,20.78-10.67,31.16-1.19,3.48-2.4,7-3.55,10.44a1.7,1.7,0,0,1-1.45,1.31q-15.1,3-30.2,6.12A7.1,7.1,0,0,1,893.78,219.33Z"/><path class="cls-1" d="M814.5,202.52l11.7-20.82Q858.14,124.84,890.06,68a3.17,3.17,0,0,1,2.4-1.78q15.48-3.12,30.93-6.37c1.17-.25,1.28.08,1.16,1.07q-1.62,13.17-3.19,26.34-1.77,14.7-3.55,29.39l-3.87,32.14q-1.91,15.92-3.82,31.83A10.45,10.45,0,0,0,910,182c0,1-.5,1.32-1.47,1.51-9.63,1.85-19.25,3.77-28.87,5.69-1.1.22-1.53.19-1.27-1.2.74-3.91,1.3-7.86,1.92-11.8.25-1.66-.34-2.25-2-1.89-7.74,1.69-15.47,3.42-23.21,5.08a2.5,2.5,0,0,0-1.8,1.45c-2.52,4.8-5.08,9.57-7.58,14.37a2.29,2.29,0,0,1-1.68,1.35q-14.17,2.93-28.36,5.91C815.38,202.48,815.07,202.47,814.5,202.52Z"/><path class="cls-2" d="M860.08,116.15l-.31,0c.3-.42.46-1,1-1.25A1.28,1.28,0,0,1,860.08,116.15Z"/><path class="cls-1" d="M1061.77,128.14c-11.57,27.19-23,54.11-35.06,80.9a2.56,2.56,0,0,1,.18-1.95q6-23.15,12.07-46.26c.63-2.39.17-2.88-2.28-2.49-2.87.45-5.75.86-8.89,1.32.78-2.77,1.5-5.34,2.23-7.91q6.21-21.65,12.43-43.29c.73-2.52.3-3-2.26-2.5l-9.48,1.77c-.42-.65,0-1.15.2-1.63q12.81-39.48,25.64-79a2.17,2.17,0,0,1,2-1.7c7.72-1.52,15.41-3.13,23.23-4.73a2.74,2.74,0,0,1-.45,1.62Q1069.23,52,1057.16,81.65c-.29.72-.9,1.46-.23,2.27s1.54.38,2.3.25c2.81-.45,5.62-1,8.67-1.53-1.42,3.58-2.74,6.94-4.07,10.3l-13.8,34.9c-.27.68-.8,1.38-.19,2.15s1.52.4,2.28.24C1055.21,129.59,1058.3,128.9,1061.77,128.14Z"/><path class="cls-1" d="M1005.57,261.93c1.83-6.58,3.59-12.86,5.34-19.15.13-.47.32-.85.86-1l14-3c.28.46.07.78,0,1.11q-2.48,8.7-4.94,17.39c-.16.55-.24,1.08-.93,1.24Z"/><path d="M979.5,109.08c-1.6,12.09-5.71,18.71-17.64,22.38-1.8.56-3.66.92-5.51,1.31s-2.48-.31-1.83-2.15q3.22-9.08,6.47-18.16c.65-1.83,1.3-3.65,1.94-5.48.19-.55.4-1.1,1-1.23,3.69-.78,7.34-1.91,11.19-1.27C978.11,105,979.49,106.43,979.5,109.08Z"/><path d="M894.47,106c-.54,2.52-1.08,5.07-1.64,7.62-2.21,10.18-4.45,20.36-6.63,30.55a2.28,2.28,0,0,1-2,2.07c-3.76.76-7.49,1.63-11.23,2.47-.67.16-1.3.3-1.82-.33s-.15-1.27.13-1.86L890.44,106a2.39,2.39,0,0,1,3.17-1.26A1.22,1.22,0,0,1,894.47,106Z"/><path d="M968.38,125.49c1.24-3.47,2.37-6.68,3.55-9.87.23-.64,2.78-1.47,3.42-1.24.47.18.43.51.34.87a17.52,17.52,0,0,1-6.53,10A3.69,3.69,0,0,1,968.38,125.49Z"/><text class="cls-3" transform="translate(79.95 229.22)">SNKRS</text></svg>