<svg id="Layer_1" data-name="Layer 1" xmlns="http://www.w3.org/2000/svg" viewBox="0 0 172 309"><defs><style>.cls-1{fill:#fff;}</style></defs><path class="cls-1" d="M99.72,70.53l-3.33-6.67c2.8-2.78,5.53-5.47,8.24-8.18q9.44-9.42,18.85-18.85c2.87-2.85,6.61-3,9.22-.43s2.47,6.35-.37,9.21Q118.76,59.2,105.17,72.76c-.59.58-1.28,1-2.27,1.85,1.71,1.59,3.19,2.85,4.55,4.23,4.89,4.92,5.24,12.56.45,17.5-8.27,8.55-16.76,16.89-25.23,25.25a2.51,2.51,0,0,1-2.28.32c-11.55-5.29-23.06-10.67-34.58-16-3.12-1.45-4.68-4.09-5.49-7.56-.48,5.33,2.32,9.94,7.47,12.36q18.69,8.76,37.39,17.46c15.81,7.37,31.63,14.69,47.41,22.11a34,34,0,0,1,9.46,54.85q-20.79,20.75-41.54,41.53c-5.77,5.77-13.22,5.78-19,0a119.38,119.38,0,0,0-9-8.41c.89,1.75,1.73,3.53,2.68,5.26a1.81,1.81,0,0,1-.44,2.52c-8.76,8.71-17.46,17.47-26.22,26.18a6.16,6.16,0,0,1-9,.15c-2.51-2.54-2.4-6.3.35-9.05q13.4-13.44,26.84-26.83c.74-.74,1.63-1.33,2.74-2.22-1.71-1.57-3.09-2.75-4.36-4-5.36-5.34-5.49-13-.2-18.35,8.09-8.2,16.3-16.29,24.4-24.47a2.18,2.18,0,0,1,2.94-.49q16.83,7.92,33.72,15.74a10.2,10.2,0,0,1,5.93,7.56c.75-4.73-2.2-9.64-7.31-12.06Q110.84,191.67,97,185.27,68.62,172,40.2,158.81a34.07,34.07,0,0,1-9.82-55.21Q51.1,82.95,71.76,62.23c5.86-5.86,13.25-5.85,19.14,0,2.83,2.84,5.63,5.71,8.44,8.57Z"/></svg>